#!OML:ASF E:\Steps\Project 1\Capture day 1\Session 2\Subject.ASF
:FULLY-SPECIFIED
:DEGREES
207
root 14.173 18.1105 19.0639 -156.227 -0.68409 178.968
lowerback -22.5437 -1.31925 -3.01577
upperback 0.611104 -1.03251 -0.800666
thorax 13.449 -0.727882 0.454247
lowerneck -1.05902 -1.03816 -0.189428
upperneck 25.4995 0.632463 2.5947
head 8.02583 1.4634 1.07589
rclavicle -5.86415e-015 -1.59028e-014
rhumerus -34.7854 -10.1277 -73.7269
rradius 40.7234
rwrist -5.72389
rhand -7.34645 -52.2508
rfingers 7.12502
rthumb 18.5376 -81.3875
lclavicle -5.86415e-015 -1.59028e-014
lhumerus -37.5984 0.944223 76.3669
lradius 31.2231
lwrist 1.87702
lhand -19.7945 -12.2427
lfingers 7.12502
lthumb 6.53821 17.6364
rfemur -34.7953 10.2085 11.7713
rtibia 49.9919
rfoot -45.049 -15.3194
rtoes -34.8104
lfemur -34.3349 -13.9393 -6.70848
ltibia 13.4478
lfoot 14.0523 7.8855
ltoes -41.1731
208
root 14.1026 18.0213 19.018 -156.185 -0.110663 179.186
lowerback -22.5917 -1.25523 -3.05057
upperback 0.690695 -0.922977 -0.864351
thorax 13.5654 -0.677649 0.436684
lowerneck -1.06911 -1.01222 -0.152196
upperneck 25.4212 0.60685 2.74
head 8.00066 1.45734 1.1136
rclavicle 0 -9.54166e-015
rhumerus -34.8366 -9.98327 -73.8498
rradius 41.2676
rwrist -5.91772
rhand -7.09637 -52.3735
rfingers 7.12502
rthumb 18.7781 -81.4871
lclavicle 0 -9.54166e-015
lhumerus -37.6401 1.1611 76.2097
lradius 31.5174
lwrist 1.98783
lhand -19.8458 -12.0665
lfingers 7.12502
lthumb 6.48869 17.8141
rfemur -35.4822 10.5148 11.5575
rtibia 51.5131
rfoot -45.5646 -15.1737
rtoes -35.5572
lfemur -34.1565 -12.9688 -7.46196
ltibia 14.451
lfoot 11.1595 6.3353
ltoes -45.076
209
root 14.0368 17.928 18.9731 -156.122 0.555142 179.443
lowerback -22.6208 -1.4113 -3.07156
upperback 0.772387 -0.729026 -0.876778
thorax 13.68 -0.431158 0.536918
lowerneck -1.0908 -0.920239 -0.255231
upperneck 25.0637 0.627718 2.89932
head 7.88171 1.43946 1.1758
rclavicle -3.77691e-015 -1.59028e-014
rhumerus -34.8504 -9.74988 -73.9396
rradius 41.8284
rwrist -6.00513
rhand -7.10814 -52.2419
rfingers 7.12502
rthumb 18.7668 -81.3567
lclavicle -3.77691e-015 -1.59028e-014
lhumerus -37.6309 1.26131 76.1321
lradius 31.9298
lwrist 2.63737
lhand -19.6675 -11.8611
lfingers 7.12502
lthumb 6.66084 18.0142
rfemur -36.2632 10.852 11.3629
rtibia 53.2026
rfoot -46.3934 -14.6723
rtoes -35.4379
lfemur -33.9052 -12.0717 -8.05274
ltibia 15.1626
lfoot 8.81264 6.02281
ltoes -47.6215
210
root 13.9732 17.8336 18.9309 -156.154 1.2704 179.502
lowerback -22.2903 -1.41741 -3.5165
upperback 0.755936 -0.632491 -0.897399
thorax 13.4751 -0.416615 0.805029
lowerneck -1.02109 -0.724677 -0.329586
upperneck 24.814 0.848759 2.97073
head 7.78039 1.52444 1.21987
rclavicle -8.15017e-015 -8.34896e-015
rhumerus -34.969 -9.3289 -74.0225
rradius 42.4171
rwrist -6.14787
rhand -7.00039 -52.1615
rfingers 7.12502
rthumb 18.8704 -81.2662
lclavicle -8.15017e-015 -8.34896e-015
lhumerus -37.7714 1.35291 76.085
lradius 32.2339
lwrist 3.12249
lhand -19.5926 -11.7498
lfingers 7.12502
lthumb 6.73309 18.1232
rfemur -37.0318 11.1818 10.9657
rtibia 54.8954
rfoot -47.057 -14.3706
rtoes -35.0971
lfemur -33.4289 -11.2369 -8.86943
ltibia 15.5912
lfoot 6.18635 6.47413
ltoes -48.7471
211
root 13.9109 17.7392 18.8943 -156.276 1.99125 179.364
lowerback -21.6379 -1.52135 -4.18229
upperback 0.651919 -0.620032 -0.962157
thorax 12.9905 -0.444899 1.1262
lowerneck -1.00136 -0.461026 -0.393518
upperneck 24.8881 1.21803 3.05966
head 7.79428 1.70529 1.28652
rclavicle 5.96354e-015 6.75868e-015
rhumerus -35.0964 -8.81665 -74.1451
rradius 42.9022
rwrist -6.28088
rhand -6.85905 -52.0924
rfingers 7.12502
rthumb 19.0064 -81.1838
lclavicle 5.96354e-015 6.75868e-015
lhumerus -38.1183 1.51963 75.9901
lradius 32.4979
lwrist 3.25134
lhand -19.6388 -11.706
lfingers 7.12502
lthumb 6.68854 18.1684
rfemur -37.744 11.4826 10.3665
rtibia 56.4469
rfoot -47.3202 -14.5346
rtoes -35.8157
lfemur -32.862 -10.2343 -9.99841
ltibia 15.9373
lfoot 3.95362 6.40229
ltoes -48.8807
212
root 13.8534 17.6438 18.8663 -156.327 2.87019 179.327
lowerback -20.8747 -1.51471 -4.80444
upperback 0.418103 -0.488529 -1.02211
thorax 12.2866 -0.402778 1.46827
lowerneck -1.02256 -0.517596 -0.362219
upperneck 25.1201 1.16955 3.02534
head 7.87789 1.69396 1.27251
rclavicle -2.18663e-015 -3.18055e-015
rhumerus -35.5476 -8.33354 -74.238
rradius 43.6
rwrist -6.36203
rhand -6.85229 -52.0724
rfingers 7.12502
rthumb 19.0129 -81.1631
lclavicle -2.18663e-015 -3.18055e-015
lhumerus -38.6671 1.48834 75.948
lradius 32.8666
lwrist 3.46584
lhand -19.779 -11.5941
lfingers 7.12502
lthumb 6.55312 18.2845
rfemur -38.6568 11.9064 9.82531
rtibia 58.0345
rfoot -47.3279 -15.0728
rtoes -38.2094
lfemur -32.5197 -9.14822 -10.9128
ltibia 16.3804
lfoot 2.12454 6.17501
ltoes -48.5017
213
root 13.797 17.5472 18.8396 -156.213 3.99793 179.475
lowerback -20.8667 -1.39549 -5.34461
upperback 0.448262 -0.197581 -1.02696
thorax 12.3036 -0.303496 1.86074
lowerneck -0.982907 -0.612882 -0.38589
upperneck 24.945 0.987335 3.03756
head 7.81458 1.58806 1.26236
rclavicle -1.78906e-015 2.70347e-014
rhumerus -35.5239 -7.90936 -74.3605
rradius 44.1802
rwrist -6.5054
rhand -6.98703 -52.1754
rfingers 7.12502
rthumb 18.8833 -81.2788
lclavicle -1.78906e-015 2.70347e-014
lhumerus -38.6362 1.63465 75.9625
lradius 32.9957
lwrist 3.60504
lhand -20.0473 -11.7368
lfingers 7.12502
lthumb 6.29418 18.1497
rfemur -39.8176 12.5669 9.33333
rtibia 59.7941
rfoot -47.6304 -14.9569
rtoes -39.465
lfemur -32.3704 -8.26539 -11.3892
ltibia 16.7777
lfoot 0.277695 6.34684
ltoes -46.6151
214
root 13.7436 17.4695 18.8147 -156.606 4.05572 179.177
lowerback -20.5033 -1.6662 -6.03031
upperback 0.81818 -0.40205 -1.15167
thorax 12.5467 -0.4573 2.0435
lowerneck -0.863723 -0.547675 -0.415694
upperneck 24.2542 0.887977 3.36345
head 7.56037 1.51454 1.34873
rclavicle 6.36111e-015 -1.19271e-014
rhumerus -34.9149 -7.85665 -74.704
rradius 44.2247
rwrist -6.66825
rhand -7.31052 -52.3501
rfingers 7.12502
rthumb 18.5722 -81.4835
lclavicle 6.36111e-015 -1.19271e-014
lhumerus -38.1091 1.76948 75.8032
lradius 32.8432
lwrist 3.56957
lhand -20.6807 -12.2889
lfingers 7.12502
lthumb 5.68263 17.6149
rfemur -39.6966 12.5084 8.97343
rtibia 61.0134
rfoot -48.1241 -14.5633
rtoes -38.9904
lfemur -32.034 -8.09342 -12.2007
ltibia 17.3812
lfoot -1.29545 5.56819
ltoes -45.0974
215
root 13.6854 17.3962 18.783 -156.922 4.1837 179.105
lowerback -20.04 -1.81785 -6.46347
upperback 1.06418 -0.532995 -1.20067
thorax 12.5827 -0.556445 2.19345
lowerneck -0.885975 -0.530596 -0.589156
upperneck 23.7903 0.764814 3.68542
head 7.40922 1.42923 1.46363
rclavicle -3.57812e-015 3.18055e-015
rhumerus -34.5885 -7.85233 -74.8893
rradius 44.3578
rwrist -6.92503
rhand -7.65718 -52.5734
rfingers 7.12502
rthumb 18.2387 -81.7383
lclavicle -3.57812e-015 3.18055e-015
lhumerus -37.7322 1.7185 75.7899
lradius 32.7345
lwrist 3.61898
lhand -21.1312 -12.3533
lfingers 7.12502
lthumb 5.24765 17.5617
rfemur -39.6039 12.5952 8.72736
rtibia 61.9137
rfoot -48.1673 -14.9652
rtoes -39.6241
lfemur -31.7767 -8.23869 -12.6416
ltibia 18.0318
lfoot -2.91665 5.31461
ltoes -45.3624
216
root 13.6238 17.3283 18.7571 -156.84 4.22627 179.198
lowerback -19.6708 -1.95483 -6.69338
upperback 1.03467 -0.698367 -1.165
thorax 12.3561 -0.643692 2.31813
lowerneck -0.873569 -0.483731 -0.653013
upperneck 23.6694 0.809991 3.67038
head 7.36567 1.43169 1.46867
rclavicle 8.34896e-015 2.8625e-014
rhumerus -34.7636 -7.63645 -74.9766
rradius 44.8053
rwrist -7.08206
rhand -7.91582 -52.4953
rfingers 7.12502
rthumb 17.9898 -81.6833
lclavicle 8.34896e-015 2.8625e-014
lhumerus -37.5573 1.52541 75.8667
lradius 32.672
lwrist 3.87457
lhand -21.2054 -11.7735
lfingers 7.12502
lthumb 5.176 18.1433
rfemur -39.9639 12.4968 8.57669
rtibia 62.7472
rfoot -48.0787 -15.2979
rtoes -40.2243
lfemur -32.12 -8.43149 -12.7755
ltibia 18.8369
lfoot -4.58172 5.29834
ltoes -45.4211
217
root 13.5601 17.2742 18.7312 -156.871 4.1483 179.365
lowerback -19.5332 -2.03968 -6.51953
upperback 1.2599 -0.842578 -1.31364
thorax 12.5435 -0.705317 2.00631
lowerneck -0.901462 -0.414422 -0.341669
upperneck 23.5597 0.883977 3.52523
head 7.33483 1.46915 1.36946
rclavicle 1.09332e-014 7.23576e-014
rhumerus -34.5556 -7.81935 -75.3801
rradius 45.0592
rwrist -6.88957
rhand -7.98976 -51.8333
rfingers 7.12502
rthumb 17.9187 -81.0278
lclavicle 1.09332e-014 7.23576e-014
lhumerus -36.8462 1.50787 75.5693
lradius 32.4035
lwrist 3.92973
lhand -21.4265 -11.3263
lfingers 7.12502
lthumb 4.96254 18.5955
rfemur -40.0718 12.431 8.51755
rtibia 63.7737
rfoot -48.5398 -14.1624
rtoes -38.5507
lfemur -32.3419 -8.73534 -12.8332
ltibia 19.4841
lfoot -5.91538 5.20213
ltoes -45.1892
218
root 13.4991 17.2273 18.7044 -156.88 3.98607 179.551
lowerback -19.6177 -2.1838 -6.42598
upperback 1.60592 -1.0445 -1.34338
thorax 13.008 -0.815002 1.84729
lowerneck -0.783957 -0.316725 -0.416487
upperneck 22.9775 0.925077 3.57696
head 7.12024 1.44425 1.38569
rclavicle 8.74653e-015 5.56597e-015
rhumerus -34.0091 -8.11455 -75.6494
rradius 45.0771
rwrist -6.65123
rhand -8.35744 -50.5355
rfingers 7.12502
rthumb 17.5649 -79.762
lclavicle 8.74653e-015 5.56597e-015
lhumerus -35.9527 1.8612 75.3303
lradius 32.0185
lwrist 3.60068
lhand -21.5747 -11.1623
lfingers 7.12502
lthumb 4.81943 18.7629
rfemur -40.1972 12.3498 8.52696
rtibia 64.7724
rfoot -48.7111 -13.8249
rtoes -38.4621
lfemur -32.5983 -9.03901 -12.8623
ltibia 20.0946
lfoot -6.86523 5.14421
ltoes -45.0635
